<svg
    width="19"
    height="19"
    viewBox="0 0 19 19"
    fill="none"
    xmlns="http://www.w3.org/2000/svg"
  >
    <path
      d="M15.6862 3.31374C14.2505 1.86868 12.3556 0.9698 10.3283 0.772076C8.30087 0.574351 6.26802 1.09017 4.58018 2.2306C2.89234 3.37104 1.65527 5.06462 1.08226 7.01937C0.509247 8.97413 0.636194 11.0676 1.44122 12.9387C1.52512 13.1127 1.55265 13.3084 1.51997 13.4987L0.749966 17.2C0.7203 17.3419 0.726358 17.4889 0.767595 17.6279C0.808832 17.7669 0.883956 17.8935 0.986216 17.9962C1.07004 18.0795 1.16986 18.1448 1.27963 18.1885C1.38941 18.2321 1.50688 18.253 1.62497 18.25H1.79997L5.54497 17.4975C5.7353 17.4746 5.92832 17.5017 6.10497 17.5762C7.97615 18.3813 10.0696 18.5082 12.0243 17.9352C13.9791 17.3622 15.6727 16.1251 16.8131 14.4373C17.9535 12.7494 18.4694 10.7166 18.2716 8.6892C18.0739 6.66181 17.175 4.76693 15.73 3.33124L15.6862 3.31374ZM5.99997 10.375C5.82691 10.375 5.65774 10.3237 5.51384 10.2275C5.36995 10.1314 5.2578 9.99472 5.19157 9.83484C5.12534 9.67495 5.10802 9.49902 5.14178 9.32929C5.17554 9.15955 5.25888 9.00364 5.38125 8.88127C5.50362 8.7589 5.65953 8.67556 5.82926 8.6418C5.999 8.60804 6.17493 8.62537 6.33481 8.6916C6.4947 8.75782 6.63136 8.86997 6.7275 9.01387C6.82365 9.15776 6.87497 9.32693 6.87497 9.49999C6.87497 9.73205 6.78278 9.95461 6.61868 10.1187C6.45459 10.2828 6.23203 10.375 5.99997 10.375ZM9.49997 10.375C9.32691 10.375 9.15773 10.3237 9.01384 10.2275C8.86995 10.1314 8.7578 9.99472 8.69157 9.83484C8.62534 9.67495 8.60802 9.49902 8.64178 9.32929C8.67554 9.15955 8.75888 9.00364 8.88125 8.88127C9.00362 8.7589 9.15953 8.67556 9.32926 8.6418C9.499 8.60804 9.67493 8.62537 9.83481 8.6916C9.9947 8.75782 10.1314 8.86997 10.2275 9.01387C10.3236 9.15776 10.375 9.32693 10.375 9.49999C10.375 9.73205 10.2828 9.95461 10.1187 10.1187C9.95459 10.2828 9.73203 10.375 9.49997 10.375ZM13 10.375C12.8269 10.375 12.6577 10.3237 12.5138 10.2275C12.3699 10.1314 12.2578 9.99472 12.1916 9.83484C12.1253 9.67495 12.108 9.49902 12.1418 9.32929C12.1755 9.15955 12.2589 9.00364 12.3812 8.88127C12.5036 8.7589 12.6595 8.67556 12.8293 8.6418C12.999 8.60804 13.1749 8.62537 13.3348 8.6916C13.4947 8.75782 13.6314 8.86997 13.7275 9.01387C13.8236 9.15776 13.875 9.32693 13.875 9.49999C13.875 9.73205 13.7828 9.95461 13.6187 10.1187C13.4546 10.2828 13.232 10.375 13 10.375Z"
      fill="white"
    />
  </svg>