<svg width="123" height="35" viewBox="0 0 123 35" fill="none" xmlns="http://www.w3.org/2000/svg">
<path d="M14.173 0.322266C7.57652 0.322266 3.56183 5.65299 3.56183 11.5878C3.56183 17.5226 14.3219 28.4883 14.3219 28.4883C14.3219 28.4883 24.9331 17.5226 24.9331 10.9099C24.9331 4.30184 19.3228 0.322266 14.173 0.322266ZM14.0939 21.1286L14.1963 17.0983C14.1963 17.0983 8.18589 16.8723 8.03239 11.288C7.91611 7.0087 11.419 5.07655 14.2195 5.07655C17.4759 5.07655 20.2858 8.05546 20.2299 11.0621C20.1555 15.3183 14.0939 21.1286 14.0939 21.1286Z" fill="url(#paint0_linear_40_21)"/>
<path d="M14.1451 0.293945C9.36749 0.293945 5.9669 3.12991 4.44568 6.93426C5.81802 5.19116 7.13919 3.70633 9.87922 2.95007C13.2379 2.02319 16.8526 3.07458 19.2483 6.70371C21.6162 10.2867 19.8577 12.9613 19.8066 13.0304C18.5971 16.4751 14.9964 20.178 14.2195 20.9527L14.1497 28.3078C14.2428 28.4046 14.3265 28.4968 14.3265 28.4968C14.3265 28.4968 24.9052 17.4942 24.9052 10.8862C24.9052 4.27353 19.2995 0.293945 14.1451 0.293945Z" fill="url(#paint1_linear_40_21)"/>
<path d="M41.7995 25.1231H36.4305L35.508 27.7162H33.3125L37.9065 15.0066H40.3419L44.936 27.7162H42.722L41.7995 25.1231ZM41.2091 23.4249L39.1242 17.5266L37.0209 23.4249H41.2091ZM46.2324 22.6762C46.2324 21.6414 46.4415 20.7344 46.8597 19.9553C47.2902 19.164 47.8806 18.5553 48.6309 18.1292C49.3812 17.7031 50.2422 17.4901 51.2139 17.4901C52.4438 17.4901 53.4586 17.7823 54.2581 18.3666C55.0699 18.9388 55.6172 19.7605 55.9001 20.8318H53.6308C53.4463 20.3327 53.1511 19.9431 52.7452 19.6631C52.3394 19.3831 51.8289 19.2431 51.2139 19.2431C50.3529 19.2431 49.6641 19.5475 49.1475 20.1562C48.6432 20.7527 48.3911 21.5927 48.3911 22.6762C48.3911 23.7596 48.6432 24.6057 49.1475 25.2144C49.6641 25.8231 50.3529 26.1275 51.2139 26.1275C52.4316 26.1275 53.2372 25.5979 53.6308 24.5388H55.9001C55.6049 25.5614 55.0514 26.377 54.2396 26.9857C53.4278 27.5823 52.4193 27.8805 51.2139 27.8805C50.2422 27.8805 49.3812 27.6675 48.6309 27.2414C47.8806 26.8031 47.2902 26.1944 46.8597 25.4153C46.4415 24.624 46.2324 23.711 46.2324 22.6762ZM67.3135 22.4388C67.3135 22.8162 67.2889 23.157 67.2397 23.4614H59.4722C59.5337 24.2649 59.8351 24.9101 60.3763 25.397C60.9175 25.884 61.5817 26.1275 62.3689 26.1275C63.5005 26.1275 64.3 25.6588 64.7674 24.7214H67.0367C66.7292 25.6466 66.1696 26.4075 65.3578 27.004C64.5583 27.5883 63.562 27.8805 62.3689 27.8805C61.3972 27.8805 60.5239 27.6675 59.749 27.2414C58.9864 26.8031 58.3837 26.1944 57.9409 25.4153C57.5104 24.624 57.2951 23.711 57.2951 22.6762C57.2951 21.6414 57.5042 20.7344 57.9224 19.9553C58.3529 19.164 58.9495 18.5553 59.7121 18.1292C60.487 17.7031 61.3726 17.4901 62.3689 17.4901C63.3283 17.4901 64.1831 17.697 64.9334 18.111C65.6837 18.5249 66.268 19.1092 66.6862 19.864C67.1044 20.6066 67.3135 21.4649 67.3135 22.4388ZM65.1179 21.7814C65.1056 21.0144 64.8289 20.3996 64.2877 19.937C63.7465 19.4744 63.0761 19.2431 62.2766 19.2431C61.5509 19.2431 60.9298 19.4744 60.4132 19.937C59.8966 20.3875 59.5891 21.0023 59.4907 21.7814H65.1179ZM83.1426 18.8049C83.1426 19.4501 82.9888 20.0588 82.6813 20.631C82.3738 21.2031 81.8818 21.6718 81.2053 22.037C80.5288 22.3901 79.6617 22.5666 78.6039 22.5666H76.2792V27.7162H74.1759V15.0249H78.6039C79.5879 15.0249 80.4181 15.1953 81.0946 15.5362C81.7834 15.8649 82.2939 16.3153 82.626 16.8875C82.9704 17.4596 83.1426 18.0988 83.1426 18.8049ZM78.6039 20.8683C79.4034 20.8683 79.9999 20.6918 80.3935 20.3388C80.7871 19.9736 80.9839 19.4623 80.9839 18.8049C80.9839 17.417 80.1906 16.7231 78.6039 16.7231H76.2792V20.8683H78.6039ZM87.2523 14.2031V27.7162H85.149V14.2031H87.2523ZM89.3125 22.6396C89.3125 21.6292 89.5216 20.7344 89.9398 19.9553C90.3703 19.1762 90.9484 18.5736 91.6741 18.1475C92.4121 17.7092 93.2239 17.4901 94.1095 17.4901C94.909 17.4901 95.604 17.6483 96.1944 17.9649C96.7971 18.2692 97.2768 18.6527 97.6335 19.1153V17.6544H99.7552V27.7162H97.6335V26.2188C97.2768 26.6936 96.7909 27.0892 96.1759 27.4057C95.5609 27.7223 94.8598 27.8805 94.0726 27.8805C93.1993 27.8805 92.3998 27.6614 91.6741 27.2231C90.9484 26.7727 90.3703 26.1518 89.9398 25.3605C89.5216 24.557 89.3125 23.6501 89.3125 22.6396ZM97.6335 22.6762C97.6335 21.9823 97.4859 21.3796 97.1907 20.8683C96.9078 20.357 96.5326 19.9675 96.0652 19.6996C95.5978 19.4318 95.0935 19.2979 94.5523 19.2979C94.0111 19.2979 93.5068 19.4318 93.0394 19.6996C92.572 19.9553 92.1907 20.3388 91.8955 20.8501C91.6126 21.3492 91.4712 21.9457 91.4712 22.6396C91.4712 23.3336 91.6126 23.9423 91.8955 24.4657C92.1907 24.9892 92.572 25.391 93.0394 25.671C93.5191 25.9388 94.0234 26.0727 94.5523 26.0727C95.0935 26.0727 95.5978 25.9388 96.0652 25.671C96.5326 25.4031 96.9078 25.0136 97.1907 24.5023C97.4859 23.9788 97.6335 23.3701 97.6335 22.6762ZM101.817 22.6762C101.817 21.6414 102.026 20.7344 102.444 19.9553C102.874 19.164 103.465 18.5553 104.215 18.1292C104.965 17.7031 105.826 17.4901 106.798 17.4901C108.028 17.4901 109.043 17.7823 109.842 18.3666C110.654 18.9388 111.201 19.7605 111.484 20.8318H109.215C109.03 20.3327 108.735 19.9431 108.329 19.6631C107.923 19.3831 107.413 19.2431 106.798 19.2431C105.937 19.2431 105.248 19.5475 104.732 20.1562C104.227 20.7527 103.975 21.5927 103.975 22.6762C103.975 23.7596 104.227 24.6057 104.732 25.2144C105.248 25.8231 105.937 26.1275 106.798 26.1275C108.016 26.1275 108.821 25.5979 109.215 24.5388H111.484C111.189 25.5614 110.636 26.377 109.824 26.9857C109.012 27.5823 108.003 27.8805 106.798 27.8805C105.826 27.8805 104.965 27.6675 104.215 27.2414C103.465 26.8031 102.874 26.1944 102.444 25.4153C102.026 24.624 101.817 23.711 101.817 22.6762ZM122.898 22.4388C122.898 22.8162 122.873 23.157 122.824 23.4614H115.056C115.118 24.2649 115.419 24.9101 115.96 25.397C116.502 25.884 117.166 26.1275 117.953 26.1275C119.085 26.1275 119.884 25.6588 120.352 24.7214H122.621C122.313 25.6466 121.754 26.4075 120.942 27.004C120.142 27.5883 119.146 27.8805 117.953 27.8805C116.981 27.8805 116.108 27.6675 115.333 27.2414C114.571 26.8031 113.968 26.1944 113.525 25.4153C113.095 24.624 112.879 23.711 112.879 22.6762C112.879 21.6414 113.088 20.7344 113.507 19.9553C113.937 19.164 114.534 18.5553 115.296 18.1292C116.071 17.7031 116.957 17.4901 117.953 17.4901C118.912 17.4901 119.767 17.697 120.518 18.111C121.268 18.5249 121.852 19.1092 122.27 19.864C122.689 20.6066 122.898 21.4649 122.898 22.4388ZM120.702 21.7814C120.69 21.0144 120.413 20.3996 119.872 19.937C119.331 19.4744 118.66 19.2431 117.861 19.2431C117.135 19.2431 116.514 19.4744 115.997 19.937C115.481 20.3875 115.173 21.0023 115.075 21.7814H120.702Z" fill="#7A6CFB"/>
<defs>
<linearGradient id="paint0_linear_40_21" x1="5.62672" y1="23.3117" x2="17.7866" y2="5.8917" gradientUnits="userSpaceOnUse">
<stop offset="0.4324" stop-color="#796BFA"/>
<stop offset="0.5357" stop-color="#7467EF"/>
<stop offset="0.7166" stop-color="#655BD2"/>
<stop offset="0.9522" stop-color="#4D48A3"/>
<stop offset="1" stop-color="#484499"/>
</linearGradient>
<linearGradient id="paint1_linear_40_21" x1="13.1935" y1="3.01892" x2="19.2832" y2="24.3865" gradientUnits="userSpaceOnUse">
<stop offset="0.1626" stop-color="#796BFA"/>
<stop offset="0.2072" stop-color="#7366EE"/>
<stop offset="0.3431" stop-color="#645ACF"/>
<stop offset="0.4856" stop-color="#5750B7"/>
<stop offset="0.636" stop-color="#4F49A6"/>
<stop offset="0.7995" stop-color="#4A459C"/>
<stop offset="1" stop-color="#484499"/>
</linearGradient>
</defs>
</svg>
