<svg width="179" height="44" viewBox="0 0 179 44" fill="none" xmlns="http://www.w3.org/2000/svg">
<path d="M15.8736 0.487581C6.00572 0.487581 0 8.55982 0 17.5468C0 26.5337 16.0964 43.1389 16.0964 43.1389C16.0964 43.1389 31.97 26.5337 31.97 16.5203C31.97 6.5138 23.5773 0.487581 15.8736 0.487581ZM15.7553 31.9943L15.9084 25.8913C15.9084 25.8913 6.91729 25.5491 6.68767 17.0928C6.51372 10.6128 11.7539 7.68693 15.9433 7.68693C20.8146 7.68693 25.0179 12.1978 24.9343 16.7507C24.823 23.1959 15.7553 31.9943 15.7553 31.9943Z" fill="white"/>
<path d="M15.8319 0.444824C8.68492 0.444824 3.59786 4.73929 1.3222 10.5002C3.37514 7.8606 5.35153 5.61215 9.45044 4.46696C14.4749 3.0634 19.8821 4.6555 23.466 10.151C27.0082 15.5767 24.3776 19.6268 24.3011 19.7315C22.4917 24.9477 17.1054 30.555 15.9433 31.7281L15.8388 42.8658C15.978 43.0124 16.1033 43.1521 16.1033 43.1521C16.1033 43.1521 31.9283 26.4909 31.9283 16.4845C31.9283 6.47105 23.5425 0.444824 15.8319 0.444824Z" fill="white"/>
<path d="M57.2009 32.536H49.1693L47.7893 36.4626H44.5049L51.3773 17.2167H55.0205L61.8929 36.4626H58.5809L57.2009 32.536ZM56.3177 29.9643L53.1989 21.0327L50.0525 29.9643H56.3177ZM63.8322 28.8306C63.8322 27.2637 64.145 25.8903 64.7706 24.7104C65.4146 23.5122 66.2978 22.5904 67.4202 21.9452C68.5426 21.3 69.8306 20.9774 71.2842 20.9774C73.1241 20.9774 74.6421 21.4198 75.8381 22.3047C77.0525 23.1711 77.8713 24.4155 78.2945 26.0377H74.8997C74.6237 25.2819 74.1821 24.692 73.5749 24.268C72.9678 23.844 72.2042 23.632 71.2842 23.632C69.9962 23.632 68.9658 24.0929 68.193 25.0146C67.4386 25.9179 67.0614 27.1899 67.0614 28.8306C67.0614 30.4713 67.4386 31.7525 68.193 32.6743C68.9658 33.596 69.9962 34.0569 71.2842 34.0569C73.1058 34.0569 74.3109 33.255 74.8997 31.6511H78.2945C77.8529 33.1996 77.0249 34.4348 75.8105 35.3565C74.5961 36.2598 73.0874 36.7115 71.2842 36.7115C69.8306 36.7115 68.5426 36.3889 67.4202 35.7436C66.2978 35.08 65.4146 34.1583 64.7706 32.9784C64.145 31.7802 63.8322 30.3976 63.8322 28.8306ZM95.3682 28.4711C95.3682 29.0426 95.3314 29.5588 95.2578 30.0197H83.6382C83.7302 31.2363 84.181 32.2134 84.9906 32.9508C85.8002 33.6882 86.7938 34.0569 87.9714 34.0569C89.6642 34.0569 90.8602 33.3471 91.5594 31.9276H94.9541C94.4941 33.3287 93.657 34.4809 92.4426 35.3842C91.2466 36.269 89.7562 36.7115 87.9714 36.7115C86.5178 36.7115 85.2114 36.3889 84.0522 35.7436C82.9114 35.08 82.0098 34.1583 81.3474 32.9784C80.7034 31.7802 80.3814 30.3976 80.3814 28.8306C80.3814 27.2637 80.6942 25.8903 81.3198 24.7104C81.9638 23.5122 82.8562 22.5904 83.997 21.9452C85.1562 21.3 86.481 20.9774 87.9714 20.9774C89.4066 20.9774 90.6854 21.2908 91.8078 21.9176C92.9302 22.5443 93.8042 23.4292 94.4298 24.5722C95.0554 25.6967 95.3682 26.9963 95.3682 28.4711ZM92.0838 27.4757C92.0654 26.3143 91.6514 25.3833 90.8418 24.6828C90.0322 23.9823 89.0294 23.632 87.8334 23.632C86.7478 23.632 85.8186 23.9823 85.0458 24.6828C84.273 25.3649 83.813 26.2958 83.6658 27.4757H92.0838ZM119.047 22.9683C119.047 23.9454 118.817 24.8671 118.357 25.7336C117.897 26.6 117.161 27.3097 116.149 27.8628C115.137 28.3974 113.84 28.6647 112.258 28.6647H108.78V36.4626H105.634V17.2443H112.258C113.73 17.2443 114.972 17.5024 115.984 18.0186C117.014 18.5163 117.778 19.1984 118.275 20.0649C118.79 20.9313 119.047 21.8991 119.047 22.9683ZM112.258 26.093C113.454 26.093 114.346 25.8257 114.935 25.2911C115.524 24.7381 115.818 23.9638 115.818 22.9683C115.818 20.8668 114.631 19.816 112.258 19.816H108.78V26.093H112.258ZM125.195 16V36.4626H122.049V16H125.195ZM128.277 28.7753C128.277 27.2452 128.59 25.8903 129.216 24.7104C129.86 23.5306 130.725 22.6181 131.81 21.9729C132.914 21.3092 134.129 20.9774 135.453 20.9774C136.649 20.9774 137.689 21.217 138.572 21.6963C139.474 22.1572 140.191 22.7379 140.725 23.4384V21.2263H143.899V36.4626H140.725V34.1951C140.191 34.9141 139.465 35.5132 138.545 35.9925C137.625 36.4718 136.576 36.7115 135.398 36.7115C134.092 36.7115 132.896 36.3797 131.81 35.716C130.725 35.0339 129.86 34.0937 129.216 32.8955C128.59 31.6788 128.277 30.3054 128.277 28.7753ZM140.725 28.8306C140.725 27.7798 140.504 26.8673 140.063 26.093C139.639 25.3188 139.078 24.7289 138.379 24.3233C137.68 23.9177 136.925 23.715 136.116 23.715C135.306 23.715 134.552 23.9177 133.853 24.3233C133.153 24.7104 132.583 25.2911 132.141 26.0654C131.718 26.8212 131.507 27.7245 131.507 28.7753C131.507 29.8261 131.718 30.7478 132.141 31.5405C132.583 32.3332 133.153 32.9416 133.853 33.3656C134.57 33.7711 135.325 33.9739 136.116 33.9739C136.925 33.9739 137.68 33.7711 138.379 33.3656C139.078 32.96 139.639 32.3701 140.063 31.5958C140.504 30.8031 140.725 29.8814 140.725 28.8306ZM146.982 28.8306C146.982 27.2637 147.295 25.8903 147.921 24.7104C148.565 23.5122 149.448 22.5904 150.57 21.9452C151.693 21.3 152.981 20.9774 154.434 20.9774C156.274 20.9774 157.792 21.4198 158.988 22.3047C160.203 23.1711 161.022 24.4155 161.445 26.0377H158.05C157.774 25.2819 157.332 24.692 156.725 24.268C156.118 23.844 155.354 23.632 154.434 23.632C153.146 23.632 152.116 24.0929 151.343 25.0146C150.589 25.9179 150.212 27.1899 150.212 28.8306C150.212 30.4713 150.589 31.7525 151.343 32.6743C152.116 33.596 153.146 34.0569 154.434 34.0569C156.256 34.0569 157.461 33.255 158.05 31.6511H161.445C161.003 33.1996 160.175 34.4348 158.961 35.3565C157.746 36.2598 156.238 36.7115 154.434 36.7115C152.981 36.7115 151.693 36.3889 150.57 35.7436C149.448 35.08 148.565 34.1583 147.921 32.9784C147.295 31.7802 146.982 30.3976 146.982 28.8306ZM178.519 28.4711C178.519 29.0426 178.482 29.5588 178.408 30.0197H166.789C166.881 31.2363 167.331 32.2134 168.141 32.9508C168.951 33.6882 169.944 34.0569 171.122 34.0569C172.815 34.0569 174.011 33.3471 174.71 31.9276H178.105C177.645 33.3287 176.807 34.4809 175.593 35.3842C174.397 36.269 172.907 36.7115 171.122 36.7115C169.668 36.7115 168.362 36.3889 167.203 35.7436C166.062 35.08 165.16 34.1583 164.498 32.9784C163.854 31.7802 163.532 30.3976 163.532 28.8306C163.532 27.2637 163.845 25.8903 164.47 24.7104C165.114 23.5122 166.007 22.5904 167.147 21.9452C168.307 21.3 169.631 20.9774 171.122 20.9774C172.557 20.9774 173.836 21.2908 174.958 21.9176C176.081 22.5443 176.955 23.4292 177.58 24.5722C178.206 25.6967 178.519 26.9963 178.519 28.4711ZM175.234 27.4757C175.216 26.3143 174.802 25.3833 173.992 24.6828C173.183 23.9823 172.18 23.632 170.984 23.632C169.898 23.632 168.969 23.9823 168.196 24.6828C167.423 25.3649 166.963 26.2958 166.816 27.4757H175.234Z" fill="white"/>
</svg>
